HIERARCHY
ROOT Hips
{
 OFFSET 0.000000 0.000000 0.000000
 CHANNELS 6 Xposition Yposition Zposition Yrotation Xrotation Zrotation
 JOINT Chest
 {
  OFFSET 0.000000 9.585900 0.002600
  CHANNELS 3 Yrotation Xrotation Zrotation
  JOINT Chest2
  {
   OFFSET 0.000000 9.601200 -0.005300
   CHANNELS 3 Yrotation Xrotation Zrotation
   JOINT Chest3
   {
    OFFSET 0.000000 9.561800 0.000000
    CHANNELS 3 Yrotation Xrotation Zrotation
    JOINT Chest4
    {
     OFFSET 0.000000 9.552100 0.000000
     CHANNELS 3 Yrotation Xrotation Zrotation
     JOINT Neck
     {
      OFFSET 0.000000 14.453000 0.000000
      CHANNELS 3 Yrotation Xrotation Zrotation
      JOINT Head
      {
       OFFSET 0.000000 8.936500 -0.011300
       CHANNELS 3 Yrotation Xrotation Zrotation
       End Site
       {
        OFFSET 0.000000 17.073600 -0.006000
       }
      }
     }
     JOINT RightCollar
     {
      OFFSET -2.921100 9.558500 0.000000
      CHANNELS 3 Yrotation Xrotation Zrotation
      JOINT RightShoulder
      {
       OFFSET -13.519700 0.000000 0.000000
       CHANNELS 3 Yrotation Xrotation Zrotation
       JOINT RightElbow
       {
        OFFSET 0.000000 -29.696600 0.000000
        CHANNELS 3 Yrotation Xrotation Zrotation
        JOINT RightWrist
        {
         OFFSET 0.000000 -24.004700 0.000000
         CHANNELS 3 Yrotation Xrotation Zrotation
         End Site
         {
          OFFSET 0.000000 -17.728500 0.000000
         }
        }
       }
      }
     }
     JOINT LeftCollar
     {
      OFFSET 2.921100 9.558500 0.000000
      CHANNELS 3 Yrotation Xrotation Zrotation
      JOINT LeftShoulder
      {
       OFFSET 13.519700 0.000000 0.000000
       CHANNELS 3 Yrotation Xrotation Zrotation
       JOINT LeftElbow
       {
        OFFSET 0.000000 -29.696600 0.000000
        CHANNELS 3 Yrotation Xrotation Zrotation
        JOINT LeftWrist
        {
         OFFSET 0.000000 -24.004700 0.000000
         CHANNELS 3 Yrotation Xrotation Zrotation
         End Site
         {
          OFFSET 0.000000 -17.728500 0.000000
         }
        }
       }
      }
     }
    }
   }
  }
 }
 JOINT RightHip
 {
  OFFSET -7.771700 -0.012900 -0.001300
  CHANNELS 3 Yrotation Xrotation Zrotation
  JOINT RightKnee
  {
   OFFSET 0.000000 -40.869800 0.001200
   CHANNELS 3 Yrotation Xrotation Zrotation
   JOINT RightAnkle
   {
    OFFSET 0.000000 -39.717900 0.002100
    CHANNELS 3 Yrotation Xrotation Zrotation
    JOINT RightToe
    {
     OFFSET 0.000000 -4.965400 11.033500
     CHANNELS 3 Yrotation Xrotation Zrotation
     End Site
     {
      OFFSET 0.000000 -1.423100 5.872300
     }
    }
   }
  }
 }
 JOINT LeftHip
 {
  OFFSET 7.771700 -0.012900 -0.001300
  CHANNELS 3 Yrotation Xrotation Zrotation
  JOINT LeftKnee
  {
   OFFSET 0.000000 -40.869800 0.001200
   CHANNELS 3 Yrotation Xrotation Zrotation
   JOINT LeftAnkle
   {
    OFFSET 0.000000 -39.717900 0.002100
    CHANNELS 3 Yrotation Xrotation Zrotation
    JOINT LeftToe
    {
     OFFSET 0.000000 -4.965400 11.033500
     CHANNELS 3 Yrotation Xrotation Zrotation
     End Site
     {
      OFFSET 0.000000 -1.423100 5.872300
     }
    }
   }
  }
 }
}
MOTION
Frames: 5
Frame Time: 0.008333
-161.398278 55.817856 107.328658 -173.558996 -28.398419 -11.382375 -0.815415 13.269887 6.575087 -0.812086 7.704406 2.139328 -0.977699 9.595200 2.637027 -0.808724 7.708657 2.141109 -0.437351 20.807325 -2.594866 0.121170 -3.708868 -2.662782 0.494237 0.955722 -4.355299 -21.483312 -3.494056 2.940206 -79.096086 -63.456256 107.870526 9.608459 -3.471975 20.449306 -9.787207 2.519125 -3.230508 7.654123 -2.830692 -0.227489 132.647422 -71.299026 -144.991187 22.594139 1.524654 -34.386883 -22.936177 -34.456847 10.940297 38.827102 84.679656 35.103462 -0.267658 -19.622631 -2.386042 -1.150721 2.740482 -0.531596 -16.318093 -48.731414 13.095271 176.649451 80.681489 171.733105 -2.072673 -17.771948 2.799812 -0.110292 -0.557980 -0.044241
-161.394134 55.820309 107.330370 -173.575246 -28.393263 -11.381266 -0.802053 13.269605 6.587040 -0.808796 7.740470 2.163679 -0.965044 9.624737 2.658017 -0.800012 7.723779 2.151835 -0.478000 20.626902 -2.633276 0.088977 -3.823177 -2.697542 0.496447 0.945939 -4.362425 -21.527965 -3.481302 2.902202 -79.172211 -62.881272 108.141527 9.524074 -3.723586 20.684982 -9.808726 2.487680 -3.257432 7.614193 -2.797468 -0.130412 132.745259 -70.989296 -145.179180 23.615393 0.280832 -32.726068 -22.948566 -34.459006 10.956332 38.867013 84.672926 35.144491 -0.266620 -19.623012 -2.398348 -1.153491 2.744680 -0.532363 -16.325545 -48.736036 13.109975 176.657420 80.680971 171.742712 -2.068983 -17.774425 2.790675 -0.108795 -0.556857 -0.044605
-161.390296 55.822384 107.331432 -173.589869 -28.387588 -11.377047 -0.794166 13.294199 6.608726 -0.801243 7.750552 2.174759 -0.954387 9.655009 2.677993 -0.798455 7.720636 2.151092 -0.514417 20.475579 -2.667502 0.060010 -3.965417 -2.729043 0.505116 0.937702 -4.367719 -21.539289 -3.455090 2.879418 -79.355278 -62.466994 108.450396 9.437511 -3.931671 20.762335 -9.820284 2.476607 -3.277225 7.584244 -2.813960 -0.093959 132.472704 -70.667309 -145.031904 24.615209 -0.929098 -30.942509 -22.959922 -34.462865 10.968230 38.918331 84.667692 35.191146 -0.248138 -19.626447 -2.408738 -1.159356 2.751051 -0.532825 -16.327010 -48.742066 13.120598 176.656245 80.680119 171.740508 -2.069964 -17.776727 2.788967 -0.109401 -0.556351 -0.046759
-161.386650 55.823578 107.332450 -173.613159 -28.378495 -11.363943 -0.780174 13.339681 6.651772 -0.792989 7.733216 2.159205 -0.947372 9.670736 2.688228 -0.793021 7.733193 2.159177 -0.549700 20.369346 -2.706804 0.028791 -4.160741 -2.755101 0.522117 0.921773 -4.367947 -21.549926 -3.448989 2.859435 -79.531345 -62.144121 108.704275 9.329215 -4.080985 20.733109 -9.837579 2.494174 -3.280948 7.553804 -2.857819 -0.080220 131.817263 -70.258347 -144.524723 25.578268 -2.050643 -29.073105 -22.965298 -34.474533 10.978010 38.988018 84.664015 35.255615 -0.228919 -19.632537 -2.420728 -1.176033 2.759762 -0.536556 -16.314691 -48.754003 13.122765 176.664276 80.679804 171.749740 -2.067897 -17.780536 2.787179 -0.109654 -0.555319 -0.048813
-161.383957 55.824757 107.331373 -173.635626 -28.378229 -11.342472 -0.762675 13.365124 6.662192 -0.786719 7.746134 2.166845 -0.948931 9.656123 2.679654 -0.776414 7.777469 2.183117 -0.583915 20.208711 -2.739395 0.001963 -4.305264 -2.785027 0.547075 0.911222 -4.353539 -21.589054 -3.500941 2.833674 -79.591705 -61.843680 108.829939 9.199840 -4.174902 20.615360 -9.856828 2.441157 -3.296027 7.499709 -2.798320 -0.012837 130.839235 -69.713725 -143.694689 26.481400 -3.037452 -27.157989 -22.963775 -34.484308 10.968228 39.087302 84.666788 35.371216 -0.243915 -19.635468 -2.456597 -1.142451 2.759467 -0.522851 -16.286383 -48.757874 13.110289 176.658424 80.678552 171.741348 -2.072616 -17.784160 2.790677 -0.109619 -0.556024 -0.050135
